<svg width="50" height="50" viewBox="0 0 50 50" fill="none" xmlns="http://www.w3.org/2000/svg">
    <g clip-path="url(#clip0_475_1032)">
        <path
            d="M50 25C50 29.9445 48.5338 34.778 45.7867 38.8893C43.0397 43.0005 39.1353 46.2048 34.5671 48.097C29.9989 49.9892 24.9723 50.4843 20.1228 49.5196C15.2732 48.555 10.8187 46.174 7.32234 42.6777C3.82603 39.1814 1.44501 34.7268 0.480379 29.8773C-0.484251 25.0277 0.010832 20.0011 1.90302 15.4329C3.79521 10.8648 6.99953 6.96029 11.1108 4.21326C15.222 1.46622 20.0555 0 25 0C31.6304 0 37.9893 2.63392 42.6777 7.32233C47.3661 12.0107 50 18.3696 50 25Z"
            fill="#F7931A" />
        <path fill-rule="evenodd" clip-rule="evenodd"
            d="M17.7683 11.4157L23.5137 12.9543L24.7978 8.16797L27.6705 8.94751L26.4364 13.5362L28.7796 14.1657L30.016 9.52706L32.9387 10.3089L31.6796 14.9725C31.6796 14.9725 36.4523 16.0293 37.5751 19.9112C38.6978 23.793 35.1069 25.8316 33.9978 25.9089C33.9978 25.9089 38.1796 28.2021 36.7433 32.7134C35.3069 37.2248 30.8978 38.0316 26.2592 36.9975L25.0001 41.8339L22.0773 41.0521L23.3614 36.2907L21.0433 35.6589L19.7592 40.4543L16.8592 39.6748L18.1455 34.9021L12.2478 33.3112L13.7342 30.0112C13.7342 30.0112 15.3978 30.4657 16.0273 30.6157C16.6569 30.7657 17.0614 30.1111 17.2387 29.4566C17.416 28.8021 20.0864 17.9543 20.3387 17.0612C20.591 16.168 20.4887 15.4702 19.4296 15.1952C18.3705 14.9202 16.9296 14.4907 16.9296 14.4907L17.7683 11.4157ZM23.5637 25.7816L21.9728 32.1066C21.9728 32.1066 29.8614 34.9543 30.8705 30.9475C31.8796 26.9407 23.5637 25.7816 23.5637 25.7816ZM24.2955 22.7816L25.8569 16.9861C25.8569 16.9861 32.6114 18.1952 31.7796 21.4202C30.9478 24.6452 26.966 23.4089 24.2955 22.7816Z"
            fill="white" />
    </g>
    <defs>
        <clipPath id="clip0_475_1032">
            <rect width="50" height="50" fill="white" />
        </clipPath>
    </defs>
</svg>