<svg width="19" height="20" viewBox="0 0 19 20" fill="none" xmlns="http://www.w3.org/2000/svg">
    <path
        d="M19 9.50391C19 8.25635 18.7543 7.02101 18.2769 5.86841C17.7994 4.71582 17.0997 3.66855 16.2175 2.78639C15.3354 1.90424 14.2881 1.20447 13.1355 0.727051C11.9829 0.249631 10.7476 0.00390625 9.5 0.00390625C8.25244 0.00390625 7.0171 0.249631 5.86451 0.727051C4.71191 1.20447 3.66464 1.90424 2.78249 2.78639C1.90033 3.66855 1.20056 4.71582 0.723144 5.86841C0.245725 7.02101 -1.85901e-08 8.25635 0 9.50391C3.75443e-08 12.0235 1.00089 14.4398 2.78249 16.2214C4.56408 18.003 6.98044 19.0039 9.5 19.0039C12.0196 19.0039 14.4359 18.003 16.2175 16.2214C17.9991 14.4398 19 12.0235 19 9.50391ZM1.58333 9.50391C1.58333 7.40428 2.41741 5.39064 3.90207 3.90598C5.38673 2.42131 7.40037 1.58724 9.5 1.58724C11.5996 1.58724 13.6133 2.42131 15.0979 3.90598C16.5826 5.39064 17.4167 7.40428 17.4167 9.50391C17.4167 11.6035 16.5826 13.6172 15.0979 15.1018C13.6133 16.5865 11.5996 17.4206 9.5 17.4206C7.40037 17.4206 5.38673 16.5865 3.90207 15.1018C2.41741 13.6172 1.58333 11.6035 1.58333 9.50391ZM7.91667 7.52474C7.91667 7.68069 7.88595 7.8351 7.82627 7.97918C7.7666 8.12325 7.67913 8.25416 7.56886 8.36443C7.45859 8.4747 7.32768 8.56217 7.1836 8.62185C7.03953 8.68152 6.88511 8.71224 6.72917 8.71224C6.57322 8.71224 6.4188 8.68152 6.27473 8.62185C6.13066 8.56217 5.99975 8.4747 5.88948 8.36443C5.77921 8.25416 5.69174 8.12325 5.63206 7.97918C5.57238 7.8351 5.54167 7.68069 5.54167 7.52474C5.54167 7.2098 5.66678 6.90775 5.88948 6.68505C6.11218 6.46235 6.41422 6.33724 6.72917 6.33724C7.04411 6.33724 7.34616 6.46235 7.56886 6.68505C7.79156 6.90775 7.91667 7.2098 7.91667 7.52474ZM13.4583 7.52474C13.4583 7.83968 13.3332 8.14173 13.1105 8.36443C12.8878 8.58713 12.5858 8.71224 12.2708 8.71224C11.9559 8.71224 11.6538 8.58713 11.4311 8.36443C11.2084 8.14173 11.0833 7.83968 11.0833 7.52474C11.0833 7.2098 11.2084 6.90775 11.4311 6.68505C11.6538 6.46235 11.9559 6.33724 12.2708 6.33724C12.5858 6.33724 12.8878 6.46235 13.1105 6.68505C13.3332 6.90775 13.4583 7.2098 13.4583 7.52474ZM6.54233 13.9721C8.00692 12.2367 10.9915 12.2367 12.4577 13.9721C12.5231 14.0562 12.6048 14.1263 12.698 14.1781C12.7912 14.2299 12.8939 14.2624 12.9999 14.2735C13.1059 14.2847 13.2131 14.2743 13.315 14.243C13.4169 14.2118 13.5114 14.1602 13.5929 14.0915C13.6744 14.0228 13.7412 13.9384 13.7893 13.8432C13.8374 13.7481 13.8657 13.6442 13.8727 13.5378C13.8796 13.4314 13.865 13.3247 13.8297 13.2242C13.7945 13.1236 13.7392 13.0311 13.6673 12.9524C11.5694 10.4666 7.429 10.4666 5.33267 12.9524C5.26079 13.0311 5.20555 13.1236 5.17026 13.2242C5.13497 13.3247 5.12036 13.4314 5.12731 13.5378C5.13426 13.6442 5.16262 13.7481 5.21069 13.8432C5.25876 13.9384 5.32555 14.0228 5.40706 14.0915C5.48857 14.1602 5.58312 14.2118 5.68503 14.243C5.78694 14.2743 5.89411 14.2847 6.00013 14.2735C6.10615 14.2624 6.20882 14.2299 6.30199 14.1781C6.39516 14.1263 6.47691 14.0562 6.54233 13.9721Z"
        fill="white" />
</svg>