<svg width="30" height="30" viewBox="0 0 30 30" fill="none" xmlns="http://www.w3.org/2000/svg">
    <g clip-path="url(#clip0_646_1036)">
        <path
            d="M10.63 10C10.63 11.2311 10.8725 12.4502 11.3436 13.5877C11.8148 14.7251 12.5053 15.7586 13.3759 16.6291C14.2464 17.4997 15.2799 18.1902 16.4173 18.6614C17.5548 19.1325 18.7739 19.375 20.005 19.375C21.2361 19.375 22.4552 19.1325 23.5927 18.6614C24.7301 18.1902 25.7636 17.4997 26.6341 16.6291C27.5047 15.7586 28.1952 14.7251 28.6664 13.5877C29.1375 12.4502 29.38 11.2311 29.38 10C29.38 8.76886 29.1375 7.54977 28.6664 6.41234C28.1952 5.27492 27.5047 4.24142 26.6341 3.37087C25.7636 2.50032 24.7301 1.80977 23.5927 1.33863C22.4552 0.867492 21.2361 0.625 20.005 0.625C18.7739 0.625 17.5548 0.867492 16.4173 1.33863C15.2799 1.80977 14.2464 2.50032 13.3759 3.37087C12.5053 4.24142 11.8148 5.27492 11.3436 6.41234C10.8725 7.54977 10.63 8.76886 10.63 10Z"
            stroke="#E1C77E" stroke-width="2" stroke-linecap="round" stroke-linejoin="round" />
        <path
            d="M10.6625 10.6564C8.75631 10.5209 6.85424 10.9711 5.21108 11.9467C3.56792 12.9224 2.26216 14.3768 1.46872 16.1153C0.675281 17.8538 0.432066 19.7932 0.771658 21.6738C1.11125 23.5544 2.01743 25.2863 3.36879 26.6374C4.72016 27.9886 6.45217 28.8945 8.33278 29.2338C10.2134 29.5732 12.1528 29.3297 13.8912 28.536C15.6295 27.7423 17.0838 26.4363 18.0592 24.793C19.0346 23.1497 19.4846 21.2476 19.3487 19.3414"
            stroke="#E1C77E" stroke-width="2" stroke-linecap="round" stroke-linejoin="round" />
        <path d="M1.2312 6.29234L3.7387 8.78359L6.2312 6.27734" stroke="#E1C77E" stroke-width="2" stroke-linecap="round"
            stroke-linejoin="round" />
        <path
            d="M9.96626 1.26562C9.1455 1.26808 8.33326 1.43218 7.57591 1.74855C6.81857 2.06491 6.13096 2.52735 5.55233 3.10946C4.9737 3.69157 4.5154 4.38194 4.20358 5.14117C3.89177 5.9004 3.73255 6.71361 3.73501 7.53437V8.78437"
            stroke="#E1C77E" stroke-width="2" stroke-linecap="round" stroke-linejoin="round" />
        <path d="M28.7788 23.7061L26.2713 21.2148L23.7788 23.7211" stroke="#E1C77E" stroke-width="2"
            stroke-linecap="round" stroke-linejoin="round" />
        <path
            d="M20.0437 28.7336C20.8645 28.7311 21.6767 28.567 22.4341 28.2507C23.1914 27.9343 23.879 27.4719 24.4576 26.8898C25.0363 26.3077 25.4946 25.6173 25.8064 24.858C26.1182 24.0988 26.2774 23.2856 26.275 22.4648V21.2148"
            stroke="#E1C77E" stroke-width="2" stroke-linecap="round" stroke-linejoin="round" />
        <path
            d="M10.6251 24.374C10.1184 24.4325 9.60511 24.3758 9.12348 24.2081C8.64185 24.0403 8.20437 23.7659 7.84374 23.4053C7.48311 23.0446 7.20867 22.6072 7.04092 22.1255C6.87318 21.6439 6.81648 21.1306 6.87505 20.624C6.81648 20.1173 6.87318 19.604 7.04092 19.1224C7.20867 18.6407 7.48311 18.2033 7.84374 17.8426C8.20437 17.482 8.64185 17.2076 9.12348 17.0398C9.60511 16.8721 10.1184 16.8154 10.6251 16.874"
            stroke="#E1C77E" stroke-width="2" stroke-linecap="round" stroke-linejoin="round" />
        <path d="M5.63 19.375H10.63" stroke="#E1C77E" stroke-width="2" stroke-linecap="round" stroke-linejoin="round" />
        <path d="M5.63 21.875H9.38" stroke="#E1C77E" stroke-width="2" stroke-linecap="round" stroke-linejoin="round" />
        <path
            d="M21.8749 5.62505H19.7499C19.3991 5.62235 19.0568 5.73328 18.7742 5.94127C18.4916 6.14926 18.2839 6.44313 18.1822 6.77894C18.0805 7.11475 18.0902 7.47446 18.2099 7.80429C18.3296 8.13413 18.5528 8.41636 18.8462 8.6088L21.1462 10.1413C21.439 10.3334 21.662 10.615 21.7818 10.944C21.9017 11.2731 21.912 11.6321 21.8112 11.9675C21.7105 12.303 21.504 12.5968 21.2227 12.8054C20.9414 13.014 20.6002 13.1261 20.2499 13.125H18.1249"
            stroke="#E1C77E" stroke-width="2" stroke-linecap="round" stroke-linejoin="round" />
        <path d="M20.63 5.625V4.375" stroke="#E1C77E" stroke-width="2" stroke-linecap="round" stroke-linejoin="round" />
        <path d="M19.38 14.375V13.125" stroke="#E1C77E" stroke-width="2" stroke-linecap="round"
            stroke-linejoin="round" />
    </g>
    <defs>
        <clipPath id="clip0_646_1036">
            <rect width="30" height="30" fill="white" />
        </clipPath>
    </defs>
</svg>