<svg width="30" height="30" viewBox="0 0 30 30" fill="none" xmlns="http://www.w3.org/2000/svg">
    <g clip-path="url(#clip0_646_1025)">
        <path
            d="M16.875 10.1875C19.55 12.0875 23.0375 15.6875 23.0375 19.8125C23.0375 23.9375 19.4375 26.875 15 26.875C10.5625 26.875 6.97498 23.9875 6.97498 19.8125C6.97498 15.6375 10.45 12.0875 13.125 10.1875L10.2875 6.25C10.16 5.98507 10.1192 5.68675 10.1708 5.39732C10.2224 5.10789 10.3638 4.84205 10.575 4.6375C10.7753 4.42886 11.0417 4.29614 11.3289 4.26195C11.6161 4.22776 11.9063 4.29422 12.15 4.45C12.3859 4.58456 12.6633 4.62709 12.9286 4.5694C13.194 4.5117 13.4287 4.35786 13.5875 4.1375L13.8625 3.7625C13.9861 3.57192 14.1543 3.4143 14.3525 3.30323C14.5506 3.19217 14.7729 3.131 15 3.125C15.2244 3.12546 15.4455 3.17891 15.6453 3.281C15.8452 3.3831 16.0181 3.53094 16.15 3.7125L16.425 4.0875C16.5837 4.30786 16.8184 4.4617 17.0838 4.5194C17.3492 4.57709 17.6266 4.53456 17.8625 4.4C18.1062 4.24422 18.3963 4.17776 18.6835 4.21195C18.9707 4.24614 19.2372 4.37886 19.4375 4.5875C19.6612 4.79484 19.8097 5.07071 19.8595 5.37169C19.9093 5.67266 19.8576 5.98164 19.7125 6.25L16.875 10.1875Z"
            stroke="#E1C77E" stroke-width="2" stroke-linecap="round" stroke-linejoin="round" />
        <path d="M10.625 10H19.375" stroke="#E1C77E" stroke-width="2" stroke-linecap="round" stroke-linejoin="round" />
        <path
            d="M5.625 24.9994C4.29892 24.9994 3.02715 24.4726 2.08947 23.5349C1.15178 22.5972 0.625 21.3255 0.625 19.9994C0.679392 18.4855 1.10729 17.0085 1.87061 15.7C2.63392 14.3914 3.70896 13.2919 5 12.4994L3.45 9.7869C3.36107 9.64673 3.31385 9.48415 3.31385 9.31815C3.31385 9.15215 3.36107 8.98957 3.45 8.8494C3.55027 8.71375 3.68664 8.60901 3.84356 8.54713C4.00048 8.48525 4.17163 8.46871 4.3375 8.4994C5.16257 8.6654 6.01243 8.6654 6.8375 8.4994C7.00337 8.46871 7.17452 8.48525 7.33144 8.54713C7.48836 8.60901 7.62473 8.71375 7.725 8.8494C7.81393 8.98957 7.86115 9.15215 7.86115 9.31815C7.86115 9.48415 7.81393 9.64673 7.725 9.7869L6.25 12.4994"
            stroke="#E1C77E" stroke-width="2" stroke-linecap="round" stroke-linejoin="round" />
        <path d="M3.125 12.5H6.25" stroke="#E1C77E" stroke-width="2" stroke-linecap="round" stroke-linejoin="round" />
        <path
            d="M24.3749 24.9994C25.701 24.9994 26.9728 24.4726 27.9105 23.5349C28.8482 22.5972 29.3749 21.3255 29.3749 19.9994C29.3206 18.4855 28.8927 17.0085 28.1293 15.7C27.366 14.3914 26.291 13.2919 24.9999 12.4994L26.5499 9.7869C26.6389 9.64673 26.6861 9.48415 26.6861 9.31815C26.6861 9.15215 26.6389 8.98957 26.5499 8.8494C26.4497 8.71375 26.3133 8.60901 26.1564 8.54713C25.9995 8.48525 25.8283 8.46871 25.6624 8.4994C24.8374 8.6654 23.9875 8.6654 23.1624 8.4994C22.9966 8.46871 22.8254 8.48525 22.6685 8.54713C22.5116 8.60901 22.3752 8.71375 22.2749 8.8494C22.186 8.98957 22.1388 9.15215 22.1388 9.31815C22.1388 9.48415 22.186 9.64673 22.2749 9.7869L23.7499 12.4994"
            stroke="#E1C77E" stroke-width="2" stroke-linecap="round" stroke-linejoin="round" />
        <path d="M26.875 12.5H23.75" stroke="#E1C77E" stroke-width="2" stroke-linecap="round" stroke-linejoin="round" />
        <path d="M15 21.875V23.125" stroke="#E1C77E" stroke-width="2" stroke-linecap="round" stroke-linejoin="round" />
        <path d="M15 15.625V16.875" stroke="#E1C77E" stroke-width="2" stroke-linecap="round" stroke-linejoin="round" />
        <path
            d="M12.5 21.875H16.25C16.5815 21.875 16.8995 21.7433 17.1339 21.5089C17.3683 21.2745 17.5 20.9565 17.5 20.625C17.5 20.2935 17.3683 19.9755 17.1339 19.7411C16.8995 19.5067 16.5815 19.375 16.25 19.375H13.75C13.4185 19.375 13.1005 19.2433 12.8661 19.0089C12.6317 18.7745 12.5 18.4565 12.5 18.125C12.5 17.7935 12.6317 17.4755 12.8661 17.2411C13.1005 17.0067 13.4185 16.875 13.75 16.875H17.5"
            stroke="#E1C77E" stroke-width="2" stroke-linecap="round" stroke-linejoin="round" />
    </g>
    <defs>
        <clipPath id="clip0_646_1025">
            <rect width="30" height="30" fill="white" />
        </clipPath>
    </defs>
</svg>